<svg width="14" height="20" viewBox="0 0 14 20" fill="none" xmlns="http://www.w3.org/2000/svg">
<path d="M12.25 2.45H9.33333C9.33333 1.09867 8.28698 0 7 0C5.71302 0 4.66667 1.09867 4.66667 2.45H1.75C0.783854 2.45 0 3.27305 0 4.2875V17.7625C0 18.777 0.783854 19.6 1.75 19.6H12.25C13.2161 19.6 14 18.777 14 17.7625V4.2875C14 3.27305 13.2161 2.45 12.25 2.45ZM3.5 16.2313C3.0151 16.2313 2.625 15.8216 2.625 15.3125C2.625 14.8034 3.0151 14.3938 3.5 14.3938C3.9849 14.3938 4.375 14.8034 4.375 15.3125C4.375 15.8216 3.9849 16.2313 3.5 16.2313ZM3.5 12.5563C3.0151 12.5563 2.625 12.1466 2.625 11.6375C2.625 11.1284 3.0151 10.7188 3.5 10.7188C3.9849 10.7188 4.375 11.1284 4.375 11.6375C4.375 12.1466 3.9849 12.5563 3.5 12.5563ZM3.5 8.88125C3.0151 8.88125 2.625 8.47164 2.625 7.9625C2.625 7.45336 3.0151 7.04375 3.5 7.04375C3.9849 7.04375 4.375 7.45336 4.375 7.9625C4.375 8.47164 3.9849 8.88125 3.5 8.88125ZM7 1.53125C7.4849 1.53125 7.875 1.94086 7.875 2.45C7.875 2.95914 7.4849 3.36875 7 3.36875C6.5151 3.36875 6.125 2.95914 6.125 2.45C6.125 1.94086 6.5151 1.53125 7 1.53125ZM11.6667 15.6188C11.6667 15.7872 11.5354 15.925 11.375 15.925H6.125C5.96458 15.925 5.83333 15.7872 5.83333 15.6188V15.0063C5.83333 14.8378 5.96458 14.7 6.125 14.7H11.375C11.5354 14.7 11.6667 14.8378 11.6667 15.0063V15.6188ZM11.6667 11.9438C11.6667 12.1122 11.5354 12.25 11.375 12.25H6.125C5.96458 12.25 5.83333 12.1122 5.83333 11.9438V11.3313C5.83333 11.1628 5.96458 11.025 6.125 11.025H11.375C11.5354 11.025 11.6667 11.1628 11.6667 11.3313V11.9438ZM11.6667 8.26875C11.6667 8.43719 11.5354 8.575 11.375 8.575H6.125C5.96458 8.575 5.83333 8.43719 5.83333 8.26875V7.65625C5.83333 7.48781 5.96458 7.35 6.125 7.35H11.375C11.5354 7.35 11.6667 7.48781 11.6667 7.65625V8.26875Z" fill="#969696"/>
</svg>
