<svg width="40" height="40" viewBox="0 0 40 40" fill="none" xmlns="http://www.w3.org/2000/svg">
<circle cx="20" cy="20" r="19.5" fill="#F5F5F5" stroke="#616161"/>
<path d="M25.25 12.45H22.3333C22.3333 11.0987 21.287 10 20 10C18.713 10 17.6667 11.0987 17.6667 12.45H14.75C13.7839 12.45 13 13.273 13 14.2875V27.7625C13 28.777 13.7839 29.6 14.75 29.6H25.25C26.2161 29.6 27 28.777 27 27.7625V14.2875C27 13.273 26.2161 12.45 25.25 12.45ZM16.5 26.2313C16.0151 26.2313 15.625 25.8216 15.625 25.3125C15.625 24.8034 16.0151 24.3938 16.5 24.3938C16.9849 24.3938 17.375 24.8034 17.375 25.3125C17.375 25.8216 16.9849 26.2313 16.5 26.2313ZM16.5 22.5563C16.0151 22.5563 15.625 22.1466 15.625 21.6375C15.625 21.1284 16.0151 20.7188 16.5 20.7188C16.9849 20.7188 17.375 21.1284 17.375 21.6375C17.375 22.1466 16.9849 22.5563 16.5 22.5563ZM16.5 18.8813C16.0151 18.8813 15.625 18.4716 15.625 17.9625C15.625 17.4534 16.0151 17.0438 16.5 17.0438C16.9849 17.0438 17.375 17.4534 17.375 17.9625C17.375 18.4716 16.9849 18.8813 16.5 18.8813ZM20 11.5313C20.4849 11.5313 20.875 11.9409 20.875 12.45C20.875 12.9591 20.4849 13.3688 20 13.3688C19.5151 13.3688 19.125 12.9591 19.125 12.45C19.125 11.9409 19.5151 11.5313 20 11.5313ZM24.6667 25.6188C24.6667 25.7872 24.5354 25.925 24.375 25.925H19.125C18.9646 25.925 18.8333 25.7872 18.8333 25.6188V25.0063C18.8333 24.8378 18.9646 24.7 19.125 24.7H24.375C24.5354 24.7 24.6667 24.8378 24.6667 25.0063V25.6188ZM24.6667 21.9438C24.6667 22.1122 24.5354 22.25 24.375 22.25H19.125C18.9646 22.25 18.8333 22.1122 18.8333 21.9438V21.3313C18.8333 21.1628 18.9646 21.025 19.125 21.025H24.375C24.5354 21.025 24.6667 21.1628 24.6667 21.3313V21.9438ZM24.6667 18.2688C24.6667 18.4372 24.5354 18.575 24.375 18.575H19.125C18.9646 18.575 18.8333 18.4372 18.8333 18.2688V17.6563C18.8333 17.4878 18.9646 17.35 19.125 17.35H24.375C24.5354 17.35 24.6667 17.4878 24.6667 17.6563V18.2688Z" fill="#616161"/>
</svg>
