<svg width="17" height="16" viewBox="0 0 17 16" fill="none" xmlns="http://www.w3.org/2000/svg">
<path d="M16.5334 13.833L13.4175 10.7177C13.2769 10.5771 13.0863 10.499 12.8862 10.499H12.3768C13.2394 9.39596 13.7519 8.00859 13.7519 6.49937C13.7519 2.90909 10.8423 0 7.25145 0C3.66057 0 0.750977 2.90909 0.750977 6.49937C0.750977 10.0896 3.66057 12.9987 7.25145 12.9987C8.76094 12.9987 10.1485 12.4863 11.2517 11.6239V12.1332C11.2517 12.3332 11.3299 12.5238 11.4705 12.6644L14.5864 15.7797C14.8801 16.0734 15.3552 16.0734 15.6458 15.7797L16.5303 14.8954C16.824 14.6017 16.824 14.1267 16.5334 13.833ZM7.25145 10.499C5.04192 10.499 3.25116 8.71165 3.25116 6.49937C3.25116 4.29021 5.03879 2.49976 7.25145 2.49976C9.46099 2.49976 11.2517 4.28708 11.2517 6.49937C11.2517 8.70852 9.46412 10.499 7.25145 10.499Z" fill="#630A37"/>
</svg>
